<svg xmlns="http://www.w3.org/2000/svg" width="376.771" height="139.484" viewBox="0 0 376.8 139.5"><g opacity=".6" fill="#fff9f2"><path d="M227.6 42.8a.7.7 0 1 1-.6-.8.7.7 0 0 1 .6.8zM155.4 64a.7.7 0 1 1-.7-.7.9.9 0 0 1 .6.7zM313.3 23.9a1.3 1.3 0 1 1 1.2 1.6 1.5 1.5 0 0 1-1.3-1.6zM336.1 9.1a1.3 1.3 0 1 1 2.7.2 1.4 1.4 0 0 1-1.3 1.5 1.5 1.5 0 0 1-1.3-1.7zM336.2 24.9a1.3 1.3 0 1 1 1.3 1.6 1.4 1.4 0 0 1-1.3-1.6zM352 13.4a1.3 1.3 0 1 1 2.6.1 1.4 1.4 0 0 1-1.3 1.6 1.5 1.5 0 0 1-1.4-1.7zM369.9 17a1.4 1.4 0 0 1 1.3-1.5 1.4 1.4 0 0 1 1.2 1.6 1.4 1.4 0 0 1-1.2 1.5 1.5 1.5 0 0 1-1.3-1.6zM15.3 42a1.3 1.3 0 1 1 1.2 1.6 1.4 1.4 0 0 1-1.2-1.6zM39.9 30.8a1.3 1.3 0 1 1 1.2 1.5 1.4 1.4 0 0 1-1.2-1.5zM64.6 18.3a1.3 1.3 0 1 1 1.2 1.6 1.5 1.5 0 0 1-1.3-1.6zM134.2 8.3a2.4 2.4 0 0 1-.8-3 1.6 1.6 0 0 1 2.5-1 2.4 2.4 0 0 1 .8 3 1.7 1.7 0 0 1-2.5 1zM167.5 40.8a1.8 1.8 0 1 1 1.7 2.2 2 2 0 0 1-1.7-2.1z"/><path d="M335.2 38.8c0 2.5-1.9 4.5-3.9 4.5s-3.7-2.1-3.6-4.6 1.8-4.6 3.8-4.6 3.7 2.2 3.7 4.7zM249 6.7c-.1 2.6-2 4.6-3.9 4.6s-3.7-2.2-3.7-4.7 1.9-4.6 3.9-4.5c2.1.1 3.7 2 3.7 4.6z" opacity=".6" style="isolation:isolate"/><path d="M287.2 70.9a1.3 1.3 0 1 1-1.3-1.6 1.4 1.4 0 0 1 1.2 1.6zM218 25.5a1.3 1.3 0 1 1-1.2-1.5 1.4 1.4 0 0 1 1.3 1.6zM308 8.5a1.3 1.3 0 1 1-1.2-1.6 1.4 1.4 0 0 1 1.2 1.5zM187.4 85a1.3 1.3 0 1 1-1.2-1.6 1.4 1.4 0 0 1 1.2 1.5zM351.2 55.4a.7.7 0 1 1-.6-.8 1 1 0 0 1 .7.8z"/><path d="M359.5 85.5a1.6 1.6 0 0 1-2.4 1 2.4 2.4 0 0 1-.8-3 1.6 1.6 0 0 1 2.5-1 2.4 2.4 0 0 1 .7 3z" opacity=".6" style="isolation:isolate"/><path d="M350.3 74.2a.5.5 0 0 1-.8.3c-.3-.1-.4-.5-.2-.9a.5.5 0 0 1 .8-.3.9.9 0 0 1 .2.8zM283.7 37.6c.3-.4.5-.5.9-.3a.8.8 0 0 1 .3 1c-.2.4-.5.6-.8.3a1 1 0 0 1-.4-1zM370 72.6c.3-.3.6-.5 1-.3a.9.9 0 0 1 .3 1.1c-.2.4-.6.6-.9.3a.9.9 0 0 1-.3-1zM369.3 81.6c.2-.4.6-.6.9-.3a.9.9 0 0 1 .3 1c-.2.4-.6.6-.9.3a1 1 0 0 1-.3-1zM365 38.6c.3-.4.7-.6 1-.3a.9.9 0 0 1 .3 1c-.2.4-.6.6-.9.3a.9.9 0 0 1-.2-1zM374.7 47.3c.2-.3.6-.5.9-.3a.9.9 0 0 1 .3 1.1c-.2.4-.6.6-.9.3a.9.9 0 0 1-.3-1zM365.2 9.8a1.4 1.4 0 0 1-1.3 1.6 1.4 1.4 0 0 1-1.2-1.6 1.4 1.4 0 0 1 1.3-1.5 1.4 1.4 0 0 1 1.1 1.6zM321.2 14.2a1.3 1.3 0 1 1-1.2-1.6 1.5 1.5 0 0 1 1.2 1.6zM136.5 68.5a1.1 1.1 0 1 1-1.2-1.5 1.4 1.4 0 0 1 1.1 1.5zM307 18.8a1 1 0 1 1 1 1.3 1.2 1.2 0 0 1-1-1.3zM188 8.2a2.1 2.1 0 0 1-.5-2.3 1.4 1.4 0 0 1 1.9-.8 2.1 2.1 0 0 1 .5 2.3 1.3 1.3 0 0 1-2 .8zM157.8 43.3a.7.7 0 1 1-.6-.8.9.9 0 0 1 .6.8zM253 63a.7.7 0 1 1-.6-.9.7.7 0 0 1 .6.8zM217.6 3.2a1 1 0 1 1-1-1.3 1.2 1.2 0 0 1 1 1.4zM302.7 60.7a2.1 2.1 0 0 1-.5-2.3 1.4 1.4 0 0 1 2-.8 2.1 2.1 0 0 1 .5 2.3 1.3 1.3 0 0 1-2 .8zM366.8 44.8a1 1 0 1 1-1-1.3 1.2 1.2 0 0 1 1 1.3zM320.7 43.6a1 1 0 1 1-1-1.3 1.2 1.2 0 0 1 1 1.4z"/><path d="M78.1 32.6A1.1 1.1 0 1 1 77 31a1.2 1.2 0 0 1 1 1.4z" opacity=".6" style="isolation:isolate"/><path d="M23 35.3a1.3 1.3 0 1 1 1.3 1.6 1.4 1.4 0 0 1-1.4-1.6zM110.5 46.2a2.4 2.4 0 0 1-.8-3 1.6 1.6 0 0 1 2.4-1 2.4 2.4 0 0 1 .8 3 1.8 1.8 0 0 1-2.5 1zM367 44.6a1.3 1.3 0 0 1-1.5 1.5 1.4 1.4 0 0 1-1.1-1.7 1.3 1.3 0 0 1 1.3-1.5 1.4 1.4 0 0 1 1.2 1.7zM339 46.7a2.5 2.5 0 0 1-2.4 2.6c-1.3 0-2-1.3-2-2.9a2.5 2.5 0 0 1 2.3-2.6 2.6 2.6 0 0 1 2 2.9zM345 6.1a1.3 1.3 0 0 1-1.4 1.5 1.4 1.4 0 0 1-1.1-1.7 1.3 1.3 0 0 1 1.3-1.4 1.4 1.4 0 0 1 1.2 1.7zM321.8 16.3a1.3 1.3 0 0 1 1.3-1.5 1.4 1.4 0 0 1 1.2 1.7 1.3 1.3 0 0 1-1.4 1.4 1.5 1.5 0 0 1-1.2-1.6zM352.2 28a1.3 1.3 0 0 1 1.3-1.5 1.4 1.4 0 0 1 1.2 1.6 1.3 1.3 0 1 1-2.5-.2zM366.2 57.2a2 2 0 0 1 2-2.1 2 2 0 0 1 1.7 2.3 1.9 1.9 0 1 1-3.7-.2zM357.2 108.9a1.8 1.8 0 1 1 1.7 2.2 2 2 0 0 1-1.7-2.2zM369.4 115.8a.7.7 0 1 1 .7.8.7.7 0 0 1-.7-.8zM371.4 139a.7.7 0 1 1 .6.8.7.7 0 0 1-.6-.8zM340.4 73.7a.5.5 0 1 1-.5-.5.5.5 0 0 1 .5.6z"/><path d="M109.4 13.7a1.8 1.8 0 1 1 1.7 2.2 2 2 0 0 1-1.7-2.2zM154.9 4.8a1.8 1.8 0 1 1 1.7 2.3 2 2 0 0 1-1.8-2.2zM168.1 18.8a1.8 1.8 0 1 1 1.7 2.3 2 2 0 0 1-1.7-2.2z" opacity=".6" style="isolation:isolate"/><path d="M99.4 93.4a.7.7 0 1 1 .6.8.7.7 0 0 1-.6-.8zM106.7 2.2a.7.7 0 1 1 .6.8.7.7 0 0 1-.6-.7zM164.7 35.3a.7.7 0 1 1 .7.8.7.7 0 0 1-.7-.7zM184.3 3.2a.7.7 0 1 1 .6.8.7.7 0 0 1-.6-.7zM197.7 23.6a.6.6 0 1 1 .6.7q-.6 0-.5-.7zM153.2 11.2a.6.6 0 1 1 .6.8.7.7 0 0 1-.6-.8zM169.9 24.2a.6.6 0 1 1 .5.7.6.6 0 0 1-.5-.7zM158.6 80.5c0-.3 0-.4-.2-.4a.3.3 0 0 0-.3.3q0 .3.3.3c.2.1.2 0 .2-.2zM149.6 36.8c0-.3 0-.4-.2-.4a.3.3 0 0 0-.3.3c0 .3.1.4.3.3 0 .3.2 0 .2-.2z"/><path d="M148.7 11.3a.6.6 0 1 1 .5.7.6.6 0 0 1-.6-.8z" opacity=".6" style="isolation:isolate"/><path d="M149 2.8a.9.9 0 1 1 .8 1 1 1 0 0 1-.8-1zM196.8 45.3a.9.9 0 1 1 .8 1 1 1 0 0 1-.8-1z"/><path d="M106.2 8.9a1.8 1.8 0 1 1-1.8-2.2 2 2 0 0 1 1.8 2.2zM162.5 47.8a1.8 1.8 0 1 1-1.8-2.2 2 2 0 0 1 1.8 2.2z" opacity=".6" style="isolation:isolate"/><path d="M178.8 55.2a.7.7 0 1 1-.7-.8 1 1 0 0 1 .7.8zM163 15.5c0-.3 0-.3.2-.3s.3.2.3.3 0 .4-.3.3-.3 0-.2-.3zM164.6 9.7c0 .3 0 .3-.3.3s-.3-.2-.3-.3.1-.4.3-.3.3 0 .3.3zM114 16.9q0 .3-.4.2t-.2-.2c0-.3 0-.4.2-.3l.3.2zM222.8 84.4c0 .3-.1.4-.3.3l-.3-.3c0-.1 0-.4.3-.3.2-.1.3 0 .3.4zM160.8 12.2c0 .3 0 .4-.3.3s-.3-.1-.3-.3.1-.3.3-.3a.3.3 0 0 1 .3.3zM175.6 17.2c0 .3 0 .3-.2.3s-.3-.2-.3-.3 0-.4.3-.3.2 0 .2.2zM153.4 17.1q0 .3-.3.3l-.3-.3s0-.3.3-.3.3 0 .3.4zM160.1 25.7q0 .3-.3.2l-.3-.2c0-.1.1-.4.3-.3a.3.3 0 0 1 .3.2zM154.4 28.5q0 .3-.3.3c-.1 0-.2-.1-.2-.3s0-.3.2-.3a.3.3 0 0 1 .4.3zM156.9 8.6q0 .3-.3.3c-.2 0-.3-.2-.3-.3s0-.4.3-.3.3 0 .3.3z"/><path d="M185 34.2a.8.8 0 0 1-1 .4 1 1 0 0 1-.4-1.4.8.8 0 0 1 1.1-.4 1.2 1.2 0 0 1 .3 1.4z" opacity=".6" style="isolation:isolate"/><path d="M180.7 28.8s-.2.2-.4 0a.4.4 0 0 1 0-.4c0-.1.2-.2.3-.1a.8.8 0 0 1 0 .5zM196 37.6s-.2.2-.3 0a.4.4 0 0 1-.1-.5s.2-.2.4 0a.4.4 0 0 1 0 .4zM178.1 27a.4.4 0 0 1 .4-.2.5.5 0 0 1 .2.5.4.4 0 0 1-.4.2c-.1 0-.3-.3-.2-.5zM184 27.6a.4.4 0 0 1 .4-.2.5.5 0 0 1 .3.5.4.4 0 0 1-.4.2c-.2 0-.3-.2-.2-.5zM190.2 28a.4.4 0 0 1 .3-.2.5.5 0 0 1 .2.5.4.4 0 0 1-.3.2c-.3 0-.3-.3-.3-.5zM189.8 32.3a.4.4 0 0 1 .3-.2.5.5 0 0 1 .2.5.4.4 0 0 1-.3.2.5.5 0 0 1-.2-.5z"/><path d="M202 51a.8.8 0 0 1-1.2.3 1 1 0 0 1-.3-1.3.8.8 0 0 1 1.1-.4 1 1 0 0 1 .4 1.4z" opacity=".6" style="isolation:isolate"/><path d="M189.2 49.5s-.2.2-.4 0a.4.4 0 0 1 0-.5s.2-.2.3 0a.4.4 0 0 1 0 .5zM195 43.7a.4.4 0 0 1 .4-.2.5.5 0 0 1 .2.5.4.4 0 0 1-.4.2c-.2 0-.3-.2-.1-.5zM201 44.3a.4.4 0 0 1 .4-.2.5.5 0 0 1 .2.5.4.4 0 0 1-.4.2c-.2-.1-.3-.3-.2-.4zM220.8 32.3s-.2.2-.3 0a.4.4 0 0 1 0-.5s.1-.2.3 0v.4z"/><path d="M117.9 31.3c-.2.6-.8.8-1.2.4a1 1 0 0 1-.3-1.3c.2-.6.8-.8 1.1-.4a1.2 1.2 0 0 1 .4 1.3z" opacity=".6" style="isolation:isolate"/><path d="M113.5 26s-.2.2-.3 0a.4.4 0 0 1-.1-.5s.2-.2.4 0a.8.8 0 0 1 0 .4zM128.8 34.7s-.2.2-.3 0a.4.4 0 0 1 0-.4c0-.1.1-.2.3 0a.4.4 0 0 1 0 .4zM111 24.2a.4.4 0 0 1 .3-.2.5.5 0 0 1 .2.4.4.4 0 0 1-.4.3c-.1 0-.3-.4-.2-.6zM123 25.1a.4.4 0 0 1 .3-.2.5.5 0 0 1 .2.5.4.4 0 0 1-.3.2c-.3 0-.3-.3-.3-.5zM122.6 29.5a.4.4 0 0 1 .4-.2.5.5 0 0 1 .2.5.4.4 0 0 1-.4.2.5.5 0 0 1-.1-.5z"/><path d="M131.7 10.9c-.1.5-.8.7-1.1.4a1.1 1.1 0 0 1-.3-1.4.8.8 0 0 1 1.1-.4 1 1 0 0 1 .4 1.4z" opacity=".6" style="isolation:isolate"/><path d="M127.4 5.5c-.1 0-.2.2-.4 0a.4.4 0 0 1 0-.5s.2-.2.3 0c0 0 0 .4.2.4zM142.8 14.2s-.2.2-.4 0a.4.4 0 0 1 0-.4s.2-.2.3 0a.8.8 0 0 1 0 .4zM133.2 137a.4.4 0 0 1 .4-.3.5.5 0 0 1 .2.5.4.4 0 0 1-.4.2c-.2 0-.3-.3-.2-.5zM125.2 13a.4.4 0 0 1 .4-.2.5.5 0 0 1 .2.5.4.4 0 0 1-.4.2c-.2-.1-.3-.3-.1-.5zM136.6 9a.4.4 0 0 1 .3-.2.5.5 0 0 1 .2.5.4.4 0 0 1-.3.2c-.3 0-.3-.3-.2-.5zM150 25.9a.7.7 0 1 1-.6-.8 1 1 0 0 1 .6.8zM4.9 135.1a.7.7 0 1 1-.7-.8.7.7 0 0 1 .7.8zM117.4 1.7a.5.5 0 1 1 .4.5.5.5 0 0 1-.4-.6zM133.7 91.4a.5.5 0 1 1 .4.5.6.6 0 0 1-.4-.5zM178.3 22.6a.5.5 0 1 1 .5.5c-.2.2-.5 0-.4-.4zM161.5 29.6a.5.5 0 1 1 .5.5.5.5 0 0 1-.5-.5zM91 14.6a.5.5 0 1 1 .5.5.5.5 0 0 1-.6-.5zM90.7 19.4a.9.9 0 0 1-.3-1.1.6.6 0 0 1 1-.4.9.9 0 0 1 .2 1.2c-.2.4-.6.5-1 .3zM139.4 34a.7.7 0 1 1 .6.7.8.8 0 0 1-.6-.8z"/><path d="M133.4 16.9a1.4 1.4 0 1 1-1.4-1.7 1.6 1.6 0 0 1 1.4 1.6z" opacity=".6" style="isolation:isolate"/><path d="M121.4 11.8a.5.5 0 1 1-.5-.5.6.6 0 0 1 .5.5zM104.8 17a.5.5 0 1 1-.4-.5.7.7 0 0 1 .5.5zM94 13.9a.5.5 0 1 1-.4-.5.7.7 0 0 1 .5.4zM136.6 27.5a1 1 0 1 1-1-1.3c.5-.1 1 .5 1 1.3zM200.9 33.9a.9.9 0 1 1-.9-1 1 1 0 0 1 .8 1z"/><path d="M141.2 12.3a1.8 1.8 0 0 1-1.9 2 2 2 0 0 1-1.6-2.3 1.8 1.8 0 0 1 2-2 2 2 0 0 1 1.6 2.4z" opacity=".6" style="isolation:isolate"/><path d="M121.4 11.8c0 .4-.3.8-.7.7a.6.6 0 0 1-.5-.9c0-.4.3-.8.7-.7.3 0 .5.4.5.9zM108 12.7a1.2 1.2 0 0 1-1.2 1.2 1.3 1.3 0 0 1-1-1.4 1.2 1.2 0 0 1 1.3-1.2 1.2 1.2 0 0 1 1 1.4zM141.5 3.6c0-.4.3-.8.8-.7a.6.6 0 0 1 .5.9c0 .4-.3.8-.7.7a.7.7 0 0 1-.5-.9zM114.3 3.7c0-.5.3-.9.7-.7a.6.6 0 0 1 .6.8c0 .4-.3.9-.7.7a.7.7 0 0 1-.5-.8zM121.1 17.8a1 1 0 0 1 1-1 1 1 0 0 1 .8 1.2 1 1 0 0 1-1 1 1.2 1.2 0 0 1-.8-1.2zM182.9 40a.9.9 0 1 1-.9-1c.6-.1.8.4.9 1zM170.9 33.9a.9.9 0 1 1-.9-1c.5-.2 1 .2.8 1zM112.4 123.6a.7.7 0 1 1 .6.8.7.7 0 0 1-.6-.7zM96.4 39.8a.4.4 0 0 1 .3-.2.5.5 0 0 1 .2.5.4.4 0 0 1-.3.2c-.3 0-.4-.3-.2-.6z"/><path d="M12.2 51.1a1.8 1.8 0 1 1 1.7 2.3 2 2 0 0 1-1.7-2.3zM27.5 38.5a1.8 1.8 0 1 1 1.7 2.2 2 2 0 0 1-1.8-2.2zM12.8 3.5a1.8 1.8 0 1 1 1.7 2.3 2 2 0 0 1-1.8-2.3zM52.3 12.7a1.8 1.8 0 1 1 1.7 2.2 2 2 0 0 1-1.7-2.3zM104.4 65.3a1.8 1.8 0 1 1 1.7 2.2 2 2 0 0 1-1.8-2.2zM51 67.1a1.8 1.8 0 1 1 1.7 2.2 2 2 0 0 1-1.7-2.2z" opacity=".6" style="isolation:isolate"/><path d="M47.5 83.7a.7.7 0 1 1 .6.8.9.9 0 0 1-.6-.8zM1.3 36.9a.7.7 0 1 1 .6.7.7.7 0 0 1-.6-.7zM5.7 46.7a.7.7 0 1 1 .7.8.7.7 0 0 1-.7-.8zM67.2 51.5a.7.7 0 1 1 .6.8.7.7 0 0 1-.6-.7zM1.1 8.1a.7.7 0 1 1-.6-.8.9.9 0 0 1 .6.7zM42.6 20.2a.7.7 0 1 1 .6.8.7.7 0 0 1-.7-.8zM17.3 19a.7.7 0 1 1 .6.7.7.7 0 0 1-.6-.7zM32 17.2a.7.7 0 1 1 .6.8.7.7 0 0 1-.6-.7zM25.4 15.7a1 1 0 1 1 1 1.3 1.2 1.2 0 0 1-1-1.3zM35.4 11.2a.7.7 0 1 1-.6-.8.7.7 0 0 1 .6.8zM32.8 4a.7.7 0 1 1-.7-.8.7.7 0 0 1 .7.8zM76.2 44.3a.6.6 0 1 1 .6.7q-.6 0-.6-.7zM76.7 34.6a.6.6 0 1 1 .6.7.6.6 0 0 1-.6-.7zM80.6 72a.6.6 0 1 1 .6.7.6.6 0 0 1-.5-.7zM36.1 59.6a.6.6 0 1 1 .6.8.8.8 0 0 1-.6-.8zM58.3 25.7a.6.6 0 1 1 .6.7.7.7 0 0 1-.6-.6zM52.6 72.4a.6.6 0 1 1 .6.8.7.7 0 0 1-.6-.7zM37 70.2c0-.2 0-.3-.3-.3a.3.3 0 0 0-.3.3q0 .3.3.3c.1 0 .3 0 .3-.2zM32.5 85.2c0-.3 0-.4-.2-.4s-.1.2-.2.4 0 .3.2.3.3-.2.2-.3zM65 32a.6.6 0 1 1 .6.8.6.6 0 0 1-.5-.8zM29.4 32.3a.6.6 0 1 1 .5.8.6.6 0 0 1-.6-.7z"/><path d="M31.5 59.5a.6.6 0 1 1 .6.7.6.6 0 0 1-.6-.7z" opacity=".6" style="isolation:isolate"/><path d="M85.7 49.5a1 1 0 1 1 1 1.3 1.2 1.2 0 0 1-1-1.2zM150.2 101.2a.9.9 0 1 1 .8 1 1 1 0 0 1-.8-1zM17.4 46.2a.9.9 0 1 1 .8 1 1 1 0 0 1-.8-1zM79.6 93.6a.9.9 0 1 1 .9 1c-.5.1-.9-.4-.8-1z"/><path d="M88.3 25.7a1.8 1.8 0 1 1-1.8-2.2 2 2 0 0 1 1.8 2.3zM45.4 96.2a1.8 1.8 0 1 1-1.8-2.2c1 0 1.8 1 1.8 2.2z" opacity=".6" style="isolation:isolate"/><path d="M71 32.5a.7.7 0 1 1-.5-.8.7.7 0 0 1 .6.8zM61.5 103.6a.7.7 0 1 1-.6-.8.7.7 0 0 1 .6.8zM59.3 38a.7.7 0 1 1-.7-.8.7.7 0 0 1 .7.8zM47.4 44a.7.7 0 1 1-.6-.9.7.7 0 0 1 .6.8z"/><path d="M47.8 47.4a.9.9 0 1 1 .8 1 1 1 0 0 1-.8-1z" opacity=".6" style="isolation:isolate"/><path d="M45.8 63.8c0-.3.1-.4.3-.3l.3.3c0 .2 0 .3-.3.3s-.3 0-.2-.3zM47.5 58q0 .2-.3.2c-.2 0-.3-.1-.3-.3s0-.3.3-.2a.3.3 0 0 1 .2.3zM28.1 6.4c0 .3 0 .4-.3.3s-.2-.1-.2-.3 0-.3.2-.2a.5.5 0 0 1 .3.3zM40 4.5q0 .3-.3.3t-.3-.3c0-.3 0-.3.3-.2a.5.5 0 0 1 .3.2zM20.3 6.7q0 .3-.3.3c-.2 0-.3-.2-.3-.3s0-.3.3-.3c.2-.1.2 0 .2.3zM49.6 3c0 .2 0 .3-.3.2s-.2-.1-.2-.3 0-.3.2-.3c.2-.2.3.1.4.3zM58.9 10c0 .3 0 .4-.3.3s-.3-.1-.3-.3.1-.3.3-.2a.3.3 0 0 1 .3.2zM43.6 60.5c0 .3-.1.4-.3.3l-.3-.3c0-.1 0-.4.3-.3s.3.1.2.4zM47.1 24.7q0 .3-.2.3t-.3-.3c0-.3 0-.3.3-.3s.3.2.3.3zM87.7 14.4c0 .3 0 .4-.3.3s-.3-.2-.3-.3.1-.4.3-.3a.3.3 0 0 1 .3.3zM58.5 65.5c0 .2 0 .3-.3.2s-.2-.1-.2-.3 0-.3.2-.2a.5.5 0 0 1 .3.2zM36.3 65.4c0 .3-.1.3-.3.3s-.3-.2-.3-.3 0-.4.3-.3.2 0 .2.3zM42.9 74c0 .2 0 .3-.3.2s-.3-.1-.3-.3.1-.3.3-.2.3 0 .3.3zM37.3 76.8c0 .3 0 .3-.3.3s-.3-.2-.3-.3.1-.4.3-.3a.3.3 0 0 1 .3.3zM39.7 56.8c0 .3 0 .4-.2.3l-.3-.3c0-.2 0-.3.3-.2s.3.1.3.3z"/><path d="M68 82.5c-.2.5-.9.7-1.2.4a1 1 0 0 1-.3-1.4.8.8 0 0 1 1.1-.4 1.2 1.2 0 0 1 .3 1.4z" opacity=".6" style="isolation:isolate"/><path d="M63.5 77c0 .1-.2.3-.4.1a.4.4 0 0 1 0-.5s.2-.2.3 0c.1.1.2.3 0 .5zM78.9 85.8c0 .1-.2.2-.4.1a.4.4 0 0 1 0-.5s.2-.2.3 0l.2.4zM61 75.4a.4.4 0 0 1 .4-.2.5.5 0 0 1 .2.5.4.4 0 0 1-.4.2c-.1-.2-.4-.4-.2-.5zM67 76a.4.4 0 0 1 .3-.2.5.5 0 0 1 .2.5.4.4 0 0 1-.3.2c-.3-.2-.3-.4-.2-.5zM73 76.3a.4.4 0 0 1 .4-.2.5.5 0 0 1 .2.5.4.4 0 0 1-.4.2c-.2-.1-.3-.3-.2-.5zM72.7 80.6a.4.4 0 0 1 .3-.2.5.5 0 0 1 .2.5.4.4 0 0 1-.3.2c-.3 0-.4-.2-.2-.4z"/><path d="M84.8 99.2a.8.8 0 0 1-1 .4 1.1 1.1 0 0 1-.4-1.4.8.8 0 0 1 1.1-.4 1.2 1.2 0 0 1 .3 1.4z" opacity=".6" style="isolation:isolate"/><path d="M72 97.7c0 .1-.2.3-.3.1a.4.4 0 0 1 0-.5s.2-.2.3 0a.8.8 0 0 1 0 .5zM78 92a.4.4 0 0 1 .3-.2.5.5 0 0 1 .2.5.4.4 0 0 1-.4.2c-.2 0-.3-.2-.2-.5zM83.9 92.6a.4.4 0 0 1 .3-.2.5.5 0 0 1 .2.5.4.4 0 0 1-.3.2c-.2 0-.3-.2-.2-.4zM89 65.4c-.2 0-.3.2-.4 0a.4.4 0 0 1-.1-.5s.2-.2.4 0a.8.8 0 0 1 0 .5zM11.7 83s-.2.2-.3 0a.4.4 0 0 1-.1-.5s.2-.2.4 0v.5zM5.9 73.5a.4.4 0 0 1 .3-.2.5.5 0 0 1 .2.5.4.4 0 0 1-.3.2c-.2-.1-.3-.4-.2-.4z"/><path d="M14.6 59.2c-.1.6-.8.8-1.1.4a1 1 0 0 1-.4-1.3c.2-.6.8-.8 1.2-.4a1.2 1.2 0 0 1 .3 1.4z" opacity=".6" style="isolation:isolate"/><path d="M10.3 53.9c-.1 0-.3.2-.4 0a.4.4 0 0 1 0-.5s.2-.2.3 0v.4zM25.6 62.5c-.1 0-.2.2-.4 0a.4.4 0 0 1 0-.4c0-.1.2-.2.3-.1 0 .1.2.3 0 .5zM3.4 57.1a.4.4 0 0 1 .4-.2.5.5 0 0 1 .2.5.4.4 0 0 1-.4.2c-.2-.1-.2-.3-.1-.5zM8.1 61.3a.3.3 0 0 1 .4-.2.5.5 0 0 1 .2.5.4.4 0 0 1-.4.2c-.3 0-.3-.3-.2-.6zM19.7 53a.4.4 0 0 1 .4-.2.5.5 0 0 1 .2.5.4.4 0 0 1-.4.2c-.2-.1-.2-.3-.2-.4zM19.3 57.4a.4.4 0 0 1 .4-.2.5.5 0 0 1 .2.5.4.4 0 0 1-.4.2.5.5 0 0 1-.1-.5zM32.9 74.3a.7.7 0 1 1-.7-.8.7.7 0 0 1 .6.8zM3.5 43.3a.7.7 0 1 1-.6-.7.7.7 0 0 1 .6.7zM12.6 30.2a.7.7 0 1 1-.6-.8.7.7 0 0 1 .6.8zM12.7 13.3a.7.7 0 1 1-.6-.8 1 1 0 0 1 .6.9zM19 28.3a.7.7 0 1 1-.5-.8.9.9 0 0 1 .6.8zM25.4 44.3a1 1 0 1 1-1-1.3c.5-.1 1 .7 1 1.3zM.2 50a.5.5 0 1 1 .5.4.5.5 0 0 1-.4-.5zM79.3 11.7a.5.5 0 1 1 .5.5.5.5 0 0 1-.5-.5zM44.4 77.9a.5.5 0 1 1 .5.5.5.5 0 0 1-.5-.5zM22.3 82.2a.7.7 0 1 1 .6.8c-.3.2-.6-.4-.6-.8z"/><path d="M16.2 65.3a1.4 1.4 0 1 1-1.3-1.8 1.6 1.6 0 0 1 1.4 1.8z" opacity=".6" style="isolation:isolate"/><path d="M4.2 60.1a.5.5 0 1 1-.5-.5c.4 0 .5.2.5.5zM19.5 75.8a1 1 0 1 1-1-1.3c.5-.1 1 .7 1 1.3zM83.8 82.2a.9.9 0 1 1-.9-1 1 1 0 0 1 .9 1z"/><path d="M4.3 60c0 .5-.3.9-.7.7A.6.6 0 0 1 3 60c0-.5.3-.9.8-.7a.7.7 0 0 1 .4.9zM24.4 51.9c0-.4.3-.9.7-.7a.6.6 0 0 1 .6.9c0 .4-.3.8-.7.6a.6.6 0 0 1-.5-.8zM42.5 12.9c0 .4-.3.8-.8.7a.6.6 0 0 1-.5-.9c0-.4.3-.8.7-.7a1 1 0 0 1 .5.9zM4 66.1a1 1 0 0 1 1-1c.4 0 .9.6.8 1.2a1 1 0 0 1-1 1A1.2 1.2 0 0 1 4 66zM65.7 88.3a.9.9 0 1 1-.8-1 1 1 0 0 1 .9.9zM33 30a.9.9 0 1 1-.8-1 1 1 0 0 1 .8 1zM53.6 82.1a.9.9 0 1 1-.8-1 1 1 0 0 1 .9 1zM273.6 16.9a1 1 0 1 1 1 1.2 1.2 1.2 0 0 1-1-1.2z"/><path d="M272.5 29a1.8 1.8 0 1 1 1.8 2.2 2 2 0 0 1-1.7-2.2zM287.8 16.3a1.8 1.8 0 1 1 1.7 2.2 2 2 0 0 1-1.7-2.2zM311.3 45a1.8 1.8 0 1 1 1.8 2.2 2 2 0 0 1-1.7-2.2z" opacity=".6" style="isolation:isolate"/><path d="M238.5 50.4a.7.7 0 1 1 .6.8.7.7 0 0 1-.6-.8zM240.1 12.4a.7.7 0 1 1 .6.8 1 1 0 0 1-.6-.8zM249.6 35.3a.7.7 0 1 1 .6.7 1 1 0 0 1-.7-.7zM249.4 52.7a.7.7 0 1 1 .7.8.9.9 0 0 1-.6-.8zM308 61.5a.7.7 0 1 1 .6.8.7.7 0 0 1-.7-.9zM261.5 20.1a.7.7 0 1 1 .6.8.7.7 0 0 1-.6-.8zM265.8 41.6a.7.7 0 1 1 .6.8.7.7 0 0 1-.6-.7zM327.5 29.4a.7.7 0 1 1 .6.8 1 1 0 0 1-.7-.8zM249.5 17.8a.7.7 0 1 1 .6.8.7.7 0 0 1-.6-.8zM337 12.5a.6.6 0 1 1 .6.7.7.7 0 0 1-.5-.7zM341 49.7a.6.6 0 1 1 .5.7.7.7 0 0 1-.6-.7zM296.6 37.4a.6.6 0 1 1 .5.7.6.6 0 0 1-.6-.6zM318.7 3.4a.6.6 0 1 1 .5.8.6.6 0 0 1-.6-.7zM313.1 50.2a.6.6 0 1 1 .6.7.6.6 0 0 1-.6-.7zM297.4 48c0-.3 0-.4-.2-.3l-.3.4c0 .2.1.3.2.3.3 0 .3-.1.3-.4zM293 63q0-.3-.3-.3c-.2 0-.2.1-.2.3s0 .4.2.4a.3.3 0 0 0 .3-.4zM325.4 9.8a.6.6 0 1 1 .5.7.7.7 0 0 1-.5-.7zM289.7 10.2a.6.6 0 1 1 .6.7.7.7 0 0 1-.6-.7z"/><path d="M291.9 37.3a.6.6 0 1 1 .5.7.6.6 0 0 1-.5-.7z" opacity=".6" style="isolation:isolate"/><path d="M346.2 27.4a1 1 0 1 1 1 1.3 1.2 1.2 0 0 1-1-1.3zM292.3 28.8a.9.9 0 1 1 .8 1c-.5.2-.8-.3-.8-1zM277.7 24a.9.9 0 1 1 .8 1 1 1 0 0 1-.8-1z"/><path d="M212.5 58.8a1.8 1.8 0 1 1-1.7-2.3 2 2 0 0 1 1.7 2.3zM350.7 122.3a1.8 1.8 0 1 1-1.8-2.2c1-.2 1.8 1 1.8 2.2zM305.7 74a1.8 1.8 0 1 1-1.7-2.3 2 2 0 0 1 1.7 2.3z" opacity=".6" style="isolation:isolate"/><path d="M236.2 32.9a.7.7 0 1 1-.7-.8.7.7 0 0 1 .7.7zM235.6 15.5a.7.7 0 1 1-.6-.8.7.7 0 0 1 .7.8zM331.5 10.3a.7.7 0 1 1-.6-.8 1 1 0 0 1 .6.7zM322 81.4a.7.7 0 1 1-.6-.8.7.7 0 0 1 .6.7zM319.7 15.8a.7.7 0 1 1-.6-.8.7.7 0 0 1 .6.7zM307.9 21.7a.7.7 0 1 1-.6-.8.9.9 0 0 1 .5.8zM305.4 13.2a.7.7 0 1 1-.7-.7.7.7 0 0 1 .7.7z"/><path d="M308.2 25.1a.9.9 0 1 1 .8 1 1 1 0 0 1-.8-1z" opacity=".6" style="isolation:isolate"/><path d="M306.2 41.7c0-.3 0-.4.3-.3s.3.1.3.3-.1.3-.3.2a.5.5 0 0 1-.3-.3zM307.8 35.8q0 .3-.3.3c-.1 0-.2-.1-.2-.3s0-.3.2-.3c.3-.1.3 0 .3.4zM256.4 72.6c0 .2 0 .3-.2.2l-.3-.2c0-.1 0-.4.3-.3s.3.1.2.2zM248.5 14.2c0 .3-.1.3-.3.3s-.3-.2-.3-.3 0-.4.3-.3.2 0 .3.3zM304 38.4q0 .3-.3.3t-.2-.3q0-.3.2-.3a.3.3 0 0 1 .3.3zM307.6 2.6q0 .3-.3.3t-.3-.3q0-.3.3-.3a.3.3 0 0 1 .3.3zM318.9 43.3c0 .3-.1.4-.3.3l-.3-.3c0-.2 0-.3.3-.3s.3 0 .2.4zM296.7 43.3c0 .3 0 .3-.3.3s-.3-.2-.3-.3.1-.4.3-.3c0-.2.3 0 .3.3zM303.3 51.8c0 .3 0 .4-.3.3s-.2-.1-.2-.3 0-.3.3-.3c0-.2.2.1.3.3zM297.6 54.7q0 .3-.2.3t-.3-.3c0-.3 0-.4.3-.3.1-.2.3 0 .3.3zM300.2 34.7c0 .3-.1.4-.3.3l-.3-.3c0-.2 0-.3.3-.3a.3.3 0 0 1 .3.3z"/><path d="M328.4 60.4a.8.8 0 0 1-1.2.4 1 1 0 0 1-.3-1.4.8.8 0 0 1 1.1-.4 1.2 1.2 0 0 1 .4 1.4z" opacity=".6" style="isolation:isolate"/><path d="M324 55c-.1 0-.3.2-.4 0a.4.4 0 0 1 0-.5s.1-.2.3 0a.4.4 0 0 1 0 .4zM339.3 63.6s-.2.2-.3 0a.4.4 0 0 1 0-.4c0-.1.1-.2.3-.1a.8.8 0 0 1 .1.5zM321.3 53.2a.4.4 0 0 1 .4-.2.5.5 0 0 1 .2.5.4.4 0 0 1-.3.2c-.3 0-.3-.3-.2-.5zM233 123.5a.4.4 0 0 1 .4-.2.5.5 0 0 1 .2.5.4.4 0 0 1-.3.2c-.3 0-.3-.2-.3-.5zM333.1 58.5a.4.4 0 0 1 .4-.2.5.5 0 0 1 .2.5.4.4 0 0 1-.4.2c-.2-.2-.2-.4-.2-.5z"/><path d="M345.3 77c-.2.5-.8.7-1.1.4a1 1 0 0 1-.4-1.4.8.8 0 0 1 1.2-.4 1.2 1.2 0 0 1 .3 1.4z" opacity=".6" style="isolation:isolate"/><path d="M332.4 75.6s-.2.2-.3 0a.4.4 0 0 1-.1-.4s.2-.2.4 0a.4.4 0 0 1 0 .4zM338.3 69.9a.4.4 0 0 1 .4-.2.5.5 0 0 1 .2.5.4.4 0 0 1-.3.2c-.4-.2-.3-.4-.3-.5zM344.3 70.5a.4.4 0 0 1 .4-.2.5.5 0 0 1 .2.5.4.4 0 0 1-.4.2c-.2-.2-.3-.4-.2-.5zM349.3 43.1c-.1.1-.2.3-.4.1a.4.4 0 0 1 0-.5s.2-.2.3 0l.1.5zM256 81.5s-.2.2-.3 0a.4.4 0 0 1 0-.4s.1-.2.3 0c0 0 .2.3 0 .5zM272.2 60.9c-.1 0-.3.2-.4 0a.4.4 0 0 1 0-.5s.2-.2.3 0v.5zM266.2 51.3a.4.4 0 0 1 .4-.2.5.5 0 0 1 .2.5.4.4 0 0 1-.4.2c-.3-.2-.2-.2-.2-.5zM266 55.7a.4.4 0 0 1 .3-.3.5.5 0 0 1 .2.5.4.4 0 0 1-.4.3c-.3-.2-.2-.5-.2-.5z"/><path d="M275 37a.8.8 0 0 1-1 .4 1 1 0 0 1-.4-1.3c.1-.6.8-.8 1.1-.4a1.2 1.2 0 0 1 .4 1.3z" opacity=".6" style="isolation:isolate"/><path d="M270.6 31.6s-.2.2-.4 0a.4.4 0 0 1 0-.4s.2-.2.3 0c.1.1.2.3.1.4zM286 40.4s-.2.2-.3 0a.4.4 0 0 1-.1-.5s.2-.2.4 0a.4.4 0 0 1 0 .5zM263.3 61.3a.4.4 0 0 1 .3-.2.5.5 0 0 1 .2.5.4.4 0 0 1-.3.2c-.3 0-.3-.2-.2-.5zM81 128a.4.4 0 0 1 .4-.2.5.5 0 0 1 .2.5.4.4 0 0 1-.3.2c-.2 0-.3-.3-.3-.6zM280.2 30.8a.4.4 0 0 1 .3-.2.5.5 0 0 1 .2.5.4.4 0 0 1-.3.2c-.3 0-.4-.2-.2-.5zM279.8 35.2a.4.4 0 0 1 .3-.2.5.5 0 0 1 .2.5.4.4 0 0 1-.3.2c-.2-.2-.3-.3-.2-.5zM299.5 6.2a.7.7 0 1 1-.7-.8.7.7 0 0 1 .7.8zM293.2 52a.7.7 0 1 1-.6-.7.7.7 0 0 1 .6.8zM263.7 31.5a.7.7 0 1 1-.6-.8 1 1 0 0 1 .6.7zM273 8a.7.7 0 1 1-.6-.8.9.9 0 0 1 .7.8zM242.4 39.1a.7.7 0 1 1-.7-.8.7.7 0 0 1 .6.8zM279.4 6.2a.7.7 0 1 1-.6-.8.7.7 0 0 1 .6.8zM285.7 22a1 1 0 1 1-1-1.2 1.2 1.2 0 0 1 1 1.3zM256 22.5a1 1 0 1 1-1-1.3 1.2 1.2 0 0 1 1 1.3zM260 49a.5.5 0 1 1 .6.6.5.5 0 0 1-.5-.5zM235.5 46.8a.5.5 0 1 1 .4.5.5.5 0 0 1-.5-.5zM230.1 26.6a.7.7 0 1 1 .7.8.8.8 0 0 1-.7-.7zM321.6 48.8a.5.5 0 1 1 .5.5.5.5 0 0 1-.5-.4zM304.7 55.7a.5.5 0 1 1 .5.5c-.2.2-.5-.2-.4-.5zM233.5 70.6a.5.5 0 1 1 .5.5.6.6 0 0 1-.5-.4zM233.1 78.8a.9.9 0 0 1-.3-1.1.6.6 0 0 1 1-.4.9.9 0 0 1 .2 1.2.8.8 0 0 1-1 .3zM282.7 60a.7.7 0 1 1 .7.9.7.7 0 0 1-.7-.8z"/><path d="M276.7 43a1.4 1.4 0 1 1-1.4-1.7 1.7 1.7 0 0 1 1.3 1.8z" opacity=".6" style="isolation:isolate"/><path d="M264 65a.5.5 0 1 1-.5-.5.5.5 0 0 1 .5.6zM247.3 76.5a.5.5 0 1 1-.5-.5c.3-.2.5.1.4.5zM236.6 69.1a.5.5 0 1 1-.5-.5.5.5 0 0 1 .5.5zM280 53.6a1 1 0 1 1-1-1.3 1.2 1.2 0 0 1 1 1.3zM344.1 60a.9.9 0 1 1-.8-1 1 1 0 0 1 .8 1zM195.7 114.5c0 .4-.3.8-.7.7a.6.6 0 0 1-.6-.9c0-.4.3-.8.7-.7a.7.7 0 0 1 .6.9zM250.7 67.1a1.2 1.2 0 0 1-1.2 1.2 1.3 1.3 0 0 1-1-1.4 1.2 1.2 0 0 1 1.2-1.2 1.3 1.3 0 0 1 1 1.4zM284.8 29.8c0-.5.3-.9.7-.7a.6.6 0 0 1 .5.8c0 .5-.3.9-.7.7a.7.7 0 0 1-.6-.8zM243.5 24.9c0 .4-.3.8-.7.7a.6.6 0 0 1-.5-.9c0-.4.3-.8.7-.7a.7.7 0 0 1 .6.9zM254 29.3c0 .4-.4.8-.8.7a.6.6 0 0 1-.6-.9c0-.4.3-.8.8-.7a.6.6 0 0 1 .5.9zM250.3 45.3c0-.4.3-.9.7-.7a.6.6 0 0 1 .5.8c0 .5-.3.9-.7.7-.3 0-.6-.3-.5-.8zM257 54.9c0-.5.4-.9.8-.7a.6.6 0 0 1 .5.8c0 .5-.3.9-.7.7-.4 0-.6-.4-.5-.9zM263.7 74.7a1 1 0 0 1 1-1c.4 0 1 .5.8 1.2a1 1 0 0 1-1 1 1.2 1.2 0 0 1-.8-1.3zM326.2 66.2a.9.9 0 1 1-.8-1c.4-.2.8.3.8 1zM293.4 7.9a.9.9 0 1 1-.8-1 1 1 0 0 1 .9 1zM314 59.9a.9.9 0 1 1-.8-1 1 1 0 0 1 .8 1zM67.5 75.4a2.3 2.3 0 1 1 2.1 2.8 2.6 2.6 0 0 1-2.2-2.7zM228.4 107.9a.7.7 0 1 1 .6.8.7.7 0 0 1-.6-.8zM8 107.1A2.3 2.3 0 1 1 10 110a2.5 2.5 0 0 1-2.1-2.7z"/></g></svg>