<svg xmlns="http://www.w3.org/2000/svg" viewBox="0 0 298 186"><defs><style>.cls-1{fill:#fff}.cls-2{fill:#c3334b}.cls-3{fill:#3c90aa}</style></defs><path class="cls-1" d="M0 40h298v146H0z"/><path d="M33.7 62.3c.3 0 .4.1.4.3L34 68v10.1a2 2 0 00.3.7c.2.4 1 .6 2.3.7.1 0 .2.1.2.3l-.2.4-3.5-.1-3.6.1c-.1 0-.2-.1-.2-.4s.1-.3.3-.3a7.7 7.7 0 001.6-.3 1 1 0 00.5-.4 9.2 9.2 0 00.3-3.2v-8.8a3.8 3.8 0 00-.2-1.8.8.8 0 00-.7-.3 3.5 3.5 0 00-1 .1l-1 .4c-.3 0-.4-.2-.4-.5l.3-.3a31.3 31.3 0 004.7-2zm13.6 0c.2 0 .4.1.4.3l-.2 5.4v7.6l.1 2.5a2 2 0 00.3.7c.1.4.9.6 2.2.7.2 0 .2.1.2.3l-.1.4-3.6-.1-3.6.1-.1-.4c0-.3 0-.3.2-.3a7.7 7.7 0 001.7-.3 1 1 0 00.5-.4 9.2 9.2 0 00.3-3.2v-8.8a3.8 3.8 0 00-.3-1.8.8.8 0 00-.7-.3 3.5 3.5 0 00-.9.1l-1 .4c-.3 0-.4-.2-.4-.5 0-.1 0-.2.3-.3a31.3 31.3 0 004.7-2z"/><path class="cls-2" d="M17 87h45v15H17z"/><path class="cls-1" d="M37.4 97.7a1.5 1.5 0 00-.4.5l-.2.2a.4.4 0 01-.1 0 12.6 12.6 0 01-4.7-5.2v6.6h-.7a.1.1 0 01-.1 0v-1.1-5.4a13.3 13.3 0 01-2 3 11.3 11.3 0 01-2.3 2 .4.4 0 01-.2 0l-.1-.1a1.7 1.7 0 00-.4-.5 10.7 10.7 0 002.8-2.3 11.6 11.6 0 002-2.7h-4.2V92h4.5v-1.5a8.8 8.8 0 000-1.5 8.1 8.1 0 01.7 0q.2 0 .2.2a.3.3 0 010 .1v.1a4.9 4.9 0 000 1V92h4.6v.7h-4.5a12.3 12.3 0 005 5zm15.4 0a4.5 4.5 0 01-.2 1 1.1 1.1 0 01-.3.5 2 2 0 01-1.2.3 2.2 2.2 0 01-1.1-.2 1 1 0 01-.3-1v-4h-1.2a7.6 7.6 0 01-.7 3.5 4.7 4.7 0 01-2 1.8.5.5 0 01-.1 0h-.2a1.9 1.9 0 00-.4-.4 4.1 4.1 0 002.2-1.9 6.9 6.9 0 00.5-3h-1.1-.1V90v-.1h5.2v4.3h-1.4v4l.1.5a1.2 1.2 0 00.7.1c.4 0 .6 0 .7-.2a3.1 3.1 0 00.2-1.4 1.4 1.4 0 00.5.3c.1 0 .2 0 .2.2zm-1.7-4v-3.1h-3.8v3zm-4.9 1.7a1.6 1.6 0 00-.3.5h-.1a.3.3 0 01-.2 0 6.7 6.7 0 01-1.2-1.3v5.2h-.7V95a16 16 0 01-1.6 1.4.3.3 0 01-.1 0h-.1a2 2 0 00-.3-.6 9.5 9.5 0 003.4-4H42.1V91.1 91h1.5v-.7a7 7 0 000-1.4 5.3 5.3 0 01.7.1h.2a.9.9 0 010 .3 3.3 3.3 0 00-.2 1v.7h.8a.4.4 0 00.3 0l.4.2.2.2a.2.2 0 01-.1.2.8.8 0 00-.3.4 13.4 13.4 0 01-1 1.9 7.3 7.3 0 001.6 1.4z"/><path d="M88.7 62.3c.3 0 .4.1.4.3L89 68v10.1a2 2 0 00.3.7c.2.4 1 .6 2.3.7.1 0 .2.1.2.3l-.2.4-3.5-.1-3.6.1c-.1 0-.2-.1-.2-.4s.1-.3.3-.3a7.7 7.7 0 001.6-.3 1 1 0 00.5-.4 9.2 9.2 0 00.3-3.2v-8.8a3.8 3.8 0 00-.2-1.8.8.8 0 00-.7-.3 3.5 3.5 0 00-1 .1l-1 .4c-.2 0-.3-.2-.3-.5 0-.1 0-.2.2-.3a31.3 31.3 0 004.7-2zm13.4 8.5a5.5 5.5 0 013.3 1.7 4.2 4.2 0 011 2.8 5 5 0 01-1.7 4 5.7 5.7 0 01-3.8 1.3 6.5 6.5 0 01-3.6-1c-1-.7-1.5-1.3-1.5-2a1 1 0 01.4-.8 2 2 0 011-.3c.4 0 .8.5 1.2 1.5l.1.3a2.3 2.3 0 002.4 1.5 2.9 2.9 0 002.5-1.3 5.8 5.8 0 00.8-3.3 4.1 4.1 0 00-1-3 3.2 3.2 0 00-2.5-1h-1.3c-.2 0-.3 0-.3-.2 0-.5.2-.8.5-.8l.9.1a3 3 0 002.4-1.1 4.3 4.3 0 00.8-2.7 3.9 3.9 0 00-.8-2.6 2.4 2.4 0 00-1.8-.8 2.3 2.3 0 00-2.2 1.1 2.9 2.9 0 00-.3 1.3 1 1 0 01-.5.9 2 2 0 01-1.1.3c-.6 0-.8-.3-.8-.8a3.2 3.2 0 011.6-2.5 5.5 5.5 0 013.3-1 5 5 0 013.5 1.2 3.8 3.8 0 011.2 3q0 3.1-3.7 4z"/><path class="cls-3" d="M72 87h45v15H72z"/><path class="cls-1" d="M99.8 99.1v.1H89.2v-.7H94v-4.6h-3.7v-.6-.1H94v-2.3a9.3 9.3 0 00-.1-1.7h.8c.1 0 .2 0 .2.2a.9.9 0 010 .2 5.2 5.2 0 00-.2 1.3v2.3h4a.1.1 0 01.1 0v.7h-4v4.6h4.9v.7z"/><path d="M143.7 62.3c.3 0 .4.1.4.3L144 68v10.1a2 2 0 00.3.7c.2.4 1 .6 2.3.7.1 0 .2.1.2.3l-.2.4-3.5-.1-3.6.1c-.1 0-.2-.1-.2-.4s.1-.3.3-.3a7.7 7.7 0 001.6-.3 1 1 0 00.5-.4 9.2 9.2 0 00.3-3.2v-8.8a3.8 3.8 0 00-.2-1.8.8.8 0 00-.7-.3 3.5 3.5 0 00-1 .1l-1 .4c-.2 0-.3-.2-.3-.5 0-.1 0-.2.2-.3a31.3 31.3 0 004.7-2zm15.6 13.1V77a5.6 5.6 0 00.2 2q.3.5 1.9.6c.1 0 .2.1.2.3s0 .4-.2.4l-3-.1h-3q-.3 0-.3-.3c0-.2 0-.3.2-.3 1-.1 1.6-.3 1.8-.5a5.8 5.8 0 00.3-2.5v-1H150.8c-.2 0-.3-.3-.3-.7a2 2 0 01.3-1q3-5 7-11.2l1.5-.3c.1 0 .2 0 .2.2l-.1 6.3v5.7c.8 0 1.7 0 2.6-.2.1 0 .2 0 .2.2l-.2.8a.2.2 0 01-.3.1h-2.4zm-2-.9v-5.2l.2-4.5-6 9.4a1 1 0 000 .2l.3.1z"/><path class="cls-2" d="M127 87h45v15h-45z"/><path class="cls-1" d="M153 99.3v.1h-.7v-.8h-5.6v.8h-.7v-9.5h7v5.4zm-.8-1.4v-3.5h-5.5V98zm0-4.1v-3.3h-5.5v3.3z"/><path d="M202 80.2h-9.5c-.2 0-.3-.2-.3-.5a1.2 1.2 0 01.2-.6c1.7-2.5 3.2-4.6 4.7-6.3l.5-.6a16.2 16.2 0 002.4-3.4 5.2 5.2 0 00.4-2.1 3.7 3.7 0 00-.9-2.7 2.4 2.4 0 00-1.8-.7 2.5 2.5 0 00-2.4 1.3 4.4 4.4 0 00-.3 1.8 1 1 0 01-.6.8 2.1 2.1 0 01-1 .3c-.6 0-.9-.3-.9-.8a3.8 3.8 0 011.8-3 5.4 5.4 0 013.4-1.3 5.2 5.2 0 013.6 1.3 3.9 3.9 0 011.3 3 5.1 5.1 0 01-.7 2.8 13 13 0 01-2.4 2.7l-.8.7a26.6 26.6 0 00-4.9 5.5h4.2a12.5 12.5 0 002.3-.2 2 2 0 00.9-.4 4.7 4.7 0 001.3-2h.2a.7.7 0 01.4 0l.1.2-1.2 4.2zm9.3-17.8a4.5 4.5 0 014 2.6 12.7 12.7 0 011.4 6.5q0 4.7-1.7 7.1a4.3 4.3 0 01-3.7 2 4.5 4.5 0 01-4-2.5 13.2 13.2 0 01-1.4-6.5q0-4.7 1.8-7.2a4.4 4.4 0 013.6-2zm0 .8c-2.1 0-3.2 2.8-3.2 8.4 0 3.1.3 5.3 1 6.7a2.4 2.4 0 002.2 1.5c1.1 0 2-.7 2.5-2a19 19 0 00.7-6.2c0-5.6-1.1-8.4-3.2-8.4z"/><path class="cls-3" d="M182 87h45v15h-45z"/><path class="cls-1" d="M209.8 99.1v.1h-10.4-.1v-.7h4.7v-4.6h-3.7v-.6-.1h3.7v-2.3a9.3 9.3 0 00-.1-1.7h.8c.1 0 .2 0 .2.2a.9.9 0 010 .2 5.2 5.2 0 00-.1 1.3v2.3H208.7a.1.1 0 01.1 0v.7h-4v4.6h4.9v.7z"/><path d="M257 80.2h-9.5c-.2 0-.3-.2-.3-.5a1.2 1.2 0 01.2-.6c1.7-2.5 3.2-4.6 4.7-6.3l.5-.6a16.2 16.2 0 002.4-3.4 5.2 5.2 0 00.4-2.1 3.7 3.7 0 00-.9-2.7 2.4 2.4 0 00-1.8-.7 2.5 2.5 0 00-2.4 1.3 4.4 4.4 0 00-.3 1.8 1 1 0 01-.6.8 2.1 2.1 0 01-1 .3c-.6 0-.9-.3-.9-.8a3.8 3.8 0 011.8-3 5.4 5.4 0 013.4-1.3 5.2 5.2 0 013.6 1.3 3.9 3.9 0 011.3 3 5.1 5.1 0 01-.7 2.8 13 13 0 01-2.4 2.7l-.8.7a26.6 26.6 0 00-4.9 5.5h4.2a12.5 12.5 0 002.3-.2 2 2 0 00.9-.4 4.7 4.7 0 001.3-2h.2a.7.7 0 01.4 0l.1.2-1.2 4.2zm10.3-17.9c.3 0 .4.1.4.3l-.1 5.4v10.1a2 2 0 00.3.7c.2.4 1 .6 2.3.7.1 0 .2.1.2.3l-.2.4-3.5-.1-3.6.1c-.1 0-.2-.1-.2-.4s.1-.3.3-.3a7.7 7.7 0 001.6-.3 1 1 0 00.5-.4 9.2 9.2 0 00.3-3.2v-8.8a3.8 3.8 0 00-.2-1.8.8.8 0 00-.7-.3 3.5 3.5 0 00-1 .1l-1 .4c-.2 0-.3-.2-.3-.5 0-.1 0-.2.2-.3a31.3 31.3 0 004.7-2z"/><path class="cls-2" d="M237 87h45v15h-45z"/><path class="cls-1" d="M263 99.3v.1h-.7v-.8h-5.6v.8h-.7v-9.5h7v5.4zm-.8-1.4v-3.5h-5.5V98zm0-4.1v-3.3h-5.5v3.3z"/><path d="M37 137.2h-9.5c-.2 0-.3-.2-.3-.5a1.2 1.2 0 01.2-.6c1.7-2.5 3.2-4.6 4.7-6.3l.5-.6a16.2 16.2 0 002.4-3.4 5.2 5.2 0 00.4-2.1 3.7 3.7 0 00-.9-2.7 2.4 2.4 0 00-1.8-.7 2.5 2.5 0 00-2.4 1.3 4.4 4.4 0 00-.3 1.8 1 1 0 01-.5.8 2.1 2.1 0 01-1.2.3c-.5 0-.7-.3-.7-.8a3.8 3.8 0 011.7-3 5.4 5.4 0 013.4-1.3 5.2 5.2 0 013.6 1.3 3.9 3.9 0 011.3 3 5.1 5.1 0 01-.7 2.8 13 13 0 01-2.4 2.7l-.8.7a26.6 26.6 0 00-4.9 5.5H33a12.5 12.5 0 002.3-.2 2 2 0 00.9-.4 4.7 4.7 0 001.3-2h.2a.7.7 0 01.4 0l.1.2-1.2 4.2zm10.1-9.4a5.5 5.5 0 013.4 1.7 4.2 4.2 0 011 2.8 5 5 0 01-1.7 4 5.7 5.7 0 01-3.8 1.3 6.5 6.5 0 01-3.6-1c-1-.6-1.6-1.3-1.6-2a1 1 0 01.5-.8 2 2 0 011-.3c.4 0 .8.5 1.2 1.5v.3a2.3 2.3 0 002.4 1.5 2.9 2.9 0 002.6-1.3 5.8 5.8 0 00.8-3.3 4.1 4.1 0 00-1.1-3 3.2 3.2 0 00-2.4-1l-1.3.1c-.2 0-.3 0-.3-.3 0-.5.1-.7.5-.7h.8a3 3 0 002.5-1.1 4.3 4.3 0 00.8-2.6 3.9 3.9 0 00-.8-2.7 2.4 2.4 0 00-1.9-.7 2.3 2.3 0 00-2.2 1 2.9 2.9 0 00-.3 1.3 1 1 0 01-.5 1 2 2 0 01-1 .2c-.6 0-.9-.2-.9-.7a3.2 3.2 0 011.7-2.6 5.5 5.5 0 013.2-1 5 5 0 013.6 1.3 3.8 3.8 0 011.1 2.9q0 3.2-3.7 4.1z"/><path class="cls-2" d="M17 144h45v15H17z"/><path class="cls-1" d="M37.4 154.7a1.5 1.5 0 00-.4.5l-.2.2a.4.4 0 01-.1 0 12.6 12.6 0 01-4.7-5.2v6.6h-.7a.1.1 0 01-.1 0v-1.2-5.3a13.3 13.3 0 01-2 3 11.3 11.3 0 01-2.3 2 .4.4 0 01-.2.1l-.1-.2a1.7 1.7 0 00-.4-.4 10.7 10.7 0 002.8-2.3 11.6 11.6 0 002-2.8h-4.2v-.6h4.5v-1.6a8.8 8.8 0 000-1.4 8.1 8.1 0 01.7 0q.2 0 .2.2a.3.3 0 010 .1v.1a4.9 4.9 0 000 1v1.5h4.6v.7h-4.5a12.3 12.3 0 005 5zm15.4 0a4.5 4.5 0 01-.2 1 1.1 1.1 0 01-.3.5 2 2 0 01-1.2.2 2.2 2.2 0 01-1.1-.1 1 1 0 01-.4-1v-4h-1.1a7.6 7.6 0 01-.7 3.4 4.7 4.7 0 01-2 1.9.5.5 0 01-.1 0l-.2-.1a1.9 1.9 0 00-.4-.4 4.1 4.1 0 002.2-1.9 6.9 6.9 0 00.5-3h-1.1-.1v-4.3h5.2v4.3h-1.4v4l.1.5a1.2 1.2 0 00.7.1c.4 0 .6 0 .7-.2a3.1 3.1 0 00.2-1.4 1.4 1.4 0 00.5.3c.1 0 .2 0 .2.2zm-1.7-4.1v-3h-3.8v3zm-4.9 1.8a1.6 1.6 0 00-.3.4l-.1.1a.3.3 0 01-.2 0 6.7 6.7 0 01-1.2-1.4v5.2l-.1.1h-.6V152a16 16 0 01-1.6 1.4.3.3 0 01-.1 0h-.1a2 2 0 00-.3-.6 9.5 9.5 0 003.4-4H42.1V148.1v-.1h1.5v-.7a7 7 0 000-1.4 5.3 5.3 0 01.7.1h.2a.9.9 0 010 .3 3.3 3.3 0 00-.2 1v.7h.8a.4.4 0 00.3 0l.4.2.2.2a.2.2 0 01-.1.2.8.8 0 00-.3.4 13.4 13.4 0 01-1 1.9 7.3 7.3 0 001.6 1.4z"/><path d="M92 137.2h-9.5c-.2 0-.3-.2-.3-.5a1.2 1.2 0 01.2-.6c1.7-2.5 3.2-4.6 4.7-6.3l.5-.6a16.2 16.2 0 002.4-3.4 5.2 5.2 0 00.4-2.1 3.7 3.7 0 00-.9-2.7 2.4 2.4 0 00-1.8-.7 2.5 2.5 0 00-2.4 1.3 4.4 4.4 0 00-.3 1.8 1 1 0 01-.5.8 2.1 2.1 0 01-1.2.3c-.5 0-.7-.3-.7-.8a3.8 3.8 0 011.7-3 5.4 5.4 0 013.4-1.3 5.2 5.2 0 013.6 1.3 3.9 3.9 0 011.3 3 5.1 5.1 0 01-.7 2.8 13 13 0 01-2.4 2.7l-.8.7a26.6 26.6 0 00-4.9 5.5H88a12.5 12.5 0 002.3-.2 2 2 0 00.9-.4 4.7 4.7 0 001.3-2h.2a.7.7 0 01.4 0l.1.2-1.2 4.2zm4.7-17.4h9.6c.1 0 .2.1.2.5a1.6 1.6 0 01-.1.6 62.5 62.5 0 00-4.5 10.6 12.2 12.2 0 00-.5 3.2v1.8a1 1 0 01-.5.8 1.7 1.7 0 01-1 .3c-.8 0-1.1-.3-1.1-1a9.8 9.8 0 01.4-2.7 36 36 0 011.3-3.5q.9-2 4.6-8.8h-5.2a3.5 3.5 0 00-2.3.5 3.3 3.3 0 00-.8 1.7.3.3 0 01-.3.2c-.3 0-.4 0-.4-.2l.6-4z"/><path class="cls-3" d="M72 144h45v15H72z"/><path class="cls-1" d="M99.8 156.1v.1H89.2v-.7H94v-4.6h-3.7v-.6-.1H94v-2.3a9.3 9.3 0 00-.1-1.7h.8c.1 0 .2 0 .2.2a.9.9 0 010 .2 5.2 5.2 0 00-.2 1.2v2.4h4a.1.1 0 01.1 0v.6a.1.1 0 010 .1h-4v4.6h4.9v.6z"/><path d="M147 137.2h-9.5c-.2 0-.3-.2-.3-.5a1.2 1.2 0 01.2-.6c1.7-2.5 3.2-4.6 4.7-6.3l.5-.6a16.2 16.2 0 002.4-3.4 5.2 5.2 0 00.4-2.1 3.7 3.7 0 00-.9-2.7 2.4 2.4 0 00-1.8-.8 2.5 2.5 0 00-2.4 1.4 4.4 4.4 0 00-.2 1.8 1 1 0 01-.6.8 2.1 2.1 0 01-1.1.3c-.5 0-.8-.3-.8-.9a3.8 3.8 0 011.7-3 5.4 5.4 0 013.4-1.2 5.2 5.2 0 013.7 1.3 3.9 3.9 0 011.2 3 5.1 5.1 0 01-.7 2.7 13 13 0 01-2.4 2.7l-.8.7a26.6 26.6 0 00-4.8 5.5h4.1a12.5 12.5 0 002.3-.1 2 2 0 00.9-.4 4.7 4.7 0 001.3-2l.2-.1a.7.7 0 01.4 0l.1.2v.2l-1.2 4zm10.8-9.8a8 8 0 013.2 2.4 5 5 0 01.8 2.9 4.6 4.6 0 01-1.8 3.7 6.4 6.4 0 01-8-.3 4.3 4.3 0 01-1.3-3.3q0-3 4-4.7a7.1 7.1 0 01-2.8-2.1 4 4 0 01-.7-2.4 3.8 3.8 0 011.7-3 5.8 5.8 0 017 .2 3.5 3.5 0 011.3 2.6 3.5 3.5 0 01-.9 2.5 6.9 6.9 0 01-2.5 1.5zm-.8-.4a3.7 3.7 0 001.8-1.5 3.8 3.8 0 00.6-2.1 3 3 0 00-1-2.4 3 3 0 00-2-.8 3 3 0 00-2.5 1 2.9 2.9 0 00-.8 2 2.7 2.7 0 00.9 2 9.8 9.8 0 003 1.8zm-1.4 1.5a4.6 4.6 0 00-2.8 4.4 4 4 0 001.2 3 3.3 3.3 0 002.3 1 3.3 3.3 0 002.7-1.2 4 4 0 00.9-2.7 3.4 3.4 0 00-1-2.5 12.2 12.2 0 00-3.3-2z"/><path class="cls-2" d="M127 144h45v15h-45z"/><path class="cls-1" d="M153 156.3v.1h-.7v-.8h-5.6v.8h-.7V147v-.1h7v5.4zm-.8-1.4v-3.4h-5.5v3.4zm0-4.1v-3.3h-5.5v3.3z"/><path fill="#db9749" d="M0 0h298v34H0z"/><path class="cls-1" d="M93.8 11.7a4 4 0 00-3.4 2.1c-.3.6 0 1 .5.4a2.8 2.8 0 012.3-1.3c1.3 0 2 .7 2 2.2 0 2.2-2 4.2-4.6 6.8l-.5.6a.3.3 0 000 .4.3.3 0 00.2.1H96c.9 0 1 0 1.2-.5a8 8 0 00.4-2c0-.4-.4-.5-.6 0-.5 1.2-.8 1.4-1.3 1.4a62.2 62.2 0 01-3.9-.3c2.4-2.4 4.8-4.6 4.8-6.8a2.9 2.9 0 00-2.6-3.1zm9.7 6.3a14.7 14.7 0 00.1-2v-1.2h5.7V18zm5.9-6.7v2.9h-5.7v-2.9zm-5.5-.6a4.8 4.8 0 00-1.3-.6c-.2 0-.3 0-.3.3a50.5 50.5 0 01.2 5c0 4.2-1 6-3.4 8-.4.4 0 .8.4.5a7.8 7.8 0 003.8-5.3h6V22c0 .4-.2.6-.6.6l-1.5-.1c-.2 0-.3.4 0 .5 1.3.4 1 1 1.7 1a1.5 1.5 0 001.6-1.3v-.1-10.9c.4-.1.7-.3.7-.5a2.6 2.6 0 00-1.4-1.2c-.2 0-.5.4-.8.7zm14.1 2.8c-.3-.2-.6 0-.5.3a2.1 2.1 0 001.6 1.5 8.7 8.7 0 001.7-.4 40.9 40.9 0 014.2-.7c.4 0 .5 0 .4.4-.8 2.6-3.3 5.4-7 7.1-.5.2-.3.8.2.7a12.1 12.1 0 007.8-6.8c.3-.8.8-.8.8-1.2s-1-1.4-1.7-1.4c-.4 0-.5.3-1.2.3a71 71 0 01-5.1.6 2.3 2.3 0 01-1.2-.4zm19.4 6.3a6.6 6.6 0 00.5-1.5.8.8 0 00-.2-.8 2.4 2.4 0 00-.3-.3l2.4-.4c.4 0 .6-.3.6-.6s-.5-.6-1-.6-1.2.3-1.7.5a16.5 16.5 0 01-2.6.3 3.2 3.2 0 01-1.3-.2c-.2-.1-.4 0-.3.4a1.4 1.4 0 001.4.8h1.4a1.3 1.3 0 01.4.9 10.2 10.2 0 01-.2 1.5.3.3 0 000 .2 46 46 0 01-3 .3 3.8 3.8 0 01-1-.2c-.3 0-.4.1-.3.4a1.3 1.3 0 001.1 1 4.9 4.9 0 001.3-.3 19.3 19.3 0 014.2-.5 24.3 24.3 0 012.8.2.5.5 0 00.5-.4v-.1c0-.5-.7-.9-1.4-.9l-2 .2-1.3.1zm16.7-3a23.7 23.7 0 003.2-2c.5-.4 1.2-.5 1.2-1s-1-1.3-1.6-1.3l-1.5.3-6 .7c-.8 0-.8-.2-1.3-.6a.3.3 0 00-.4 0 .3.3 0 000 .3 1.9 1.9 0 001.4 1.7 24 24 0 003-.6l4-.7c.4 0 .4 0 .1.4a10.5 10.5 0 01-2.1 2 2.2 2.2 0 00-1.3-.5c-.4 0-.8.2-.8.5s.8.4.8 1c0 1.1-1.4 3.6-4 5.2-.5.4-.3 1 .3.7a8.4 8.4 0 005-5.9zm9.6-5.5h3.2v1.2h-3.3v-1.2zm-.1 3.1v-1.2h3.3v1.2zm3.3.6v.3c0 .2 0 .5.4.5s.7-.1.7-.6v-3.7c.3-.1.5-.3.5-.5s-.9-1-1.2-1-.4.4-.7.7h-2.5a4 4 0 00-1.5-.7.2.2 0 00-.2.2c.2 2.4 0 11.4 0 13.4 0 .3.1.5.5.5.5 0 .7-.2.7-.6v-8.4zm2.9 2.2v2H168v-1.6c.4-.1.6-.2.6-.4zm3 2.6c.4 0 .7-.1.7-.4s-1-1.2-1.2-1.2-.6.5-.9 1h-.6v-1.6c.4 0 .6-.2.6-.4h1c.6 0 .8 0 .8-.3s-1-1.2-1.3-1.2-.5.5-.8.9H165c-.2 0-.3 0-.3.3s.1.3.3.3h2a11.2 11.2 0 010 2h-2.3c-.2 0-.3 0-.3.3s.1.3.3.3h2.2a4.8 4.8 0 01-.5 1.3 5 5 0 01-2 1.8c-.4.3-.1.7.3.5a5.4 5.4 0 002.6-1.9 4.6 4.6 0 00.7-1.7h1.8V23c0 .3.1.5.4.5.5 0 .7-.2.7-.6v-3.1zm-1.7-5.4v-1.2h3.5v1.2zm3.5-3.1v1.2H171v-1.2zm-3-.7a4.2 4.2 0 00-1.5-.6.2.2 0 00-.2.2v5a.4.4 0 00.4.5c.5 0 .8-.1.8-.5V15h3.5v7c0 .5-.2.7-.6.7l-1-.1c-.3 0-.4.4 0 .5 1 .3.7 1 1.2 1a1.4 1.4 0 001.5-1.4l.1-11c.3-.2.7-.3.7-.5S175.4 10 175 10l-.7.7zm9 8.1v-4c.4 0 .7-.1.7-.3s-.5-.5-1-.7a30.2 30.2 0 001.2-2.8c.5 0 .8 0 .8-.3s-1-.9-1.7-1c-.2 0-.2 0-.2.2a19 19 0 01-3 7.4c-.3.4 0 .6.4.3a14 14 0 001.7-2.3v8.4c0 .3.1.5.4.5.5 0 .8-.2.8-.6zm3.8 2h2.5v1.7h-2.4zm0-2.8v-1.6h2.4V18zM187 20h-2.5v-1.6h2.5zm1 2.3v-1.7h3q.7 0 .7-.3c0-.3-1-1.2-1.3-1.2s-.5.5-.8.9h-1.6v-1.6h2.8c.5 0 .7-.1.7-.4s-1-1.2-1.3-1.2-.5.5-.8 1h-1.4v-1.3c.2 0 .4-.1.4-.3h2.9c.5 0 .8-.1.8-.3 0-.4-1-1.3-1.4-1.3s-.6.5-.9 1h-2l.6-1.1c.4 0 .8-.1.8-.3s-.8-.7-1.5-.9a.2.2 0 00-.3.2 8.4 8.4 0 01-.6 2h-2.2l.4-1c.5 0 .8-.1.8-.4s-1-.7-1.6-.8a.2.2 0 00-.2.1v-.4h6.4v.4a.4.4 0 00.3.4h.1c.4 0 .7-.1.7-.5v-2c.5-.1.7-.3.7-.6s-1-.4-1.7-.4c-.2 0-.3 0-.2.2a12.8 12.8 0 010 1.6v.3h-2.7v-1.8c.5-.1.8-.2.8-.5s-1.4-.5-1.7-.5a.2.2 0 00-.2.2v2.6H184v-1.2c.5 0 .7-.2.7-.5s-1-.4-1.7-.4c-.1 0-.2 0-.2.2a14.2 14.2 0 01.1 1.7v1.4a.4.4 0 00.4.4 1 1 0 00.6-.1 11.9 11.9 0 01-2.6 4.8c-.3.4 0 .7.4.4a9.2 9.2 0 001.7-1.7v6.2a.4.4 0 00.3.4h.1c.5 0 .7-.2.7-.5V23h7.2c.5 0 .8-.1.8-.4s-1-1.2-1.4-1.2-.6.5-.9 1zm9.8-.5v-4.5h6.6v4.5zm0-5.2v-4.5H204.3v4.6zm.5-5.1a4.1 4.1 0 00-1.6-.7.2.2 0 00-.2.2c.2 2.3 0 10.4 0 12.4a.4.4 0 00.4.4h.1c.5 0 .8-.2.8-.5v-.9h6.6v.7a.5.5 0 00.4.5c.5 0 .9-.1.9-.6 0-1.2-.2-8.2 0-10.6.3-.1.6-.3.6-.5s-1-1.2-1.4-1.2c-.2 0-.6.4-.8.8z"/></svg>