<svg xmlns="http://www.w3.org/2000/svg" width="17.6" height="19.4"><path d="M1.2 12a6.5 6.5 0 01-.4-.5.6.6 0 01-.1-.4.4.4 0 01.2-.3 1.3 1.3 0 01.4-.2 2.3 2.3 0 01.5 0 2.7 2.7 0 01.4 0 .5.5 0 01.3 0 2.4 2.4 0 01.3.4 18.3 18.3 0 011.7 2.5l1.4 2.7A68.3 68.3 0 0110 8.7a52.4 52.4 0 015.1-6.6 1.5 1.5 0 01.8-.4 3.3 3.3 0 011.1 0 .6.6 0 01.3 0 .2.2 0 01.1.3.7.7 0 010 .2 1 1 0 01-.2.2l-3 3.4-2.7 3.7-2.5 4.1q-1.2 2.1-2.3 4.6a.2.2 0 01-.2.1 1.2 1.2 0 01-.2.1 2.6 2.6 0 01-.4 0h-.4a2.1 2.1 0 01-.5-.1.5.5 0 01-.3-.3L4 16.2l-.8-1.4-1-1.4-1-1.4z" fill="#ffba6a"/></svg>