<svg xmlns="http://www.w3.org/2000/svg" width="42.904" height="77.392" viewBox="0 0 42.904 77.392">
  <g transform="translate(-17.096 -1565)">
    <path d="M62.34,70.3A86.324,86.324,0,0,1,56.982,40.11c0-2.353.1-4.35.217-5.892L55.617,34.1c-.119,1.582-.217,3.618-.217,6.01a88.03,88.03,0,0,0,5.457,30.744A70.61,70.61,0,0,0,87.232,104.6l.909-1.325A68.608,68.608,0,0,1,62.34,70.3Z" transform="translate(-28.141 1537.273)" fill="#e1d4c6"/>
    <path d="M53.447,6.577a2.36,2.36,0,1,0-2.175-2.531A2.352,2.352,0,0,0,53.447,6.577Z" transform="translate(-24.824 1563.135)" fill="#e8e8e8"/>
    <path d="M25.8,98.269a1.547,1.547,0,1,0-1.424-1.661A1.549,1.549,0,0,0,25.8,98.269Z" transform="translate(-3.244 1488.269)" fill="#e8e8e8"/>
    <path d="M98.669,160.545a1.547,1.547,0,1,0-1.661,1.424A1.549,1.549,0,0,0,98.669,160.545Z" transform="translate(-60.378 1437.164)" fill="#e8e8e8"/>
    <path d="M60.269,236.245a1.547,1.547,0,1,0-1.661,1.424A1.525,1.525,0,0,0,60.269,236.245Z" transform="translate(-29.57 1376.431)" fill="#e8e8e8"/>
    <path d="M145.084,265.608a1.547,1.547,0,1,0,1.661-1.424A1.549,1.549,0,0,0,145.084,265.608Z" transform="translate(-100.091 1352.683)" fill="#e8e8e8"/>
    <path d="M121.345,331.184a1.547,1.547,0,1,0,1.424,1.661A1.523,1.523,0,0,0,121.345,331.184Z" transform="translate(-79.713 1298.93)" fill="#e8e8e8"/>
    <path d="M71.846,84.94l.138.178.217.079a3.877,3.877,0,0,0,1.325.217,6.025,6.025,0,0,0,3.282-1.147,8.97,8.97,0,0,0,2.056-1.957h0a8.567,8.567,0,0,0,1.5-4.528,4.3,4.3,0,0,0-.87-2.709l-.138-.178-.217-.079a3.768,3.768,0,0,0-1.3-.217,6.025,6.025,0,0,0-3.282,1.147A8.97,8.97,0,0,0,72.5,77.7,8.567,8.567,0,0,0,71,82.232,4.239,4.239,0,0,0,71.846,84.94Z" transform="translate(-40.652 1504.781)" fill="#e1d4c6"/>
    <path d="M144.4,223.6Z" transform="translate(-99.545 1385.24)" fill="#b28146"/>
    <path d="M105.292,190.311a8.661,8.661,0,0,0-.692,3.4,4.892,4.892,0,0,0,1.522,3.816l.178.158.237.04a4.867,4.867,0,0,0,.514.04,5.17,5.17,0,0,0,3.519-1.621,8.886,8.886,0,0,0,1.878-2.59h0a8.661,8.661,0,0,0,.692-3.4,4.892,4.892,0,0,0-1.522-3.816l-.178-.158-.237-.04a4.871,4.871,0,0,0-.514-.04,5.17,5.17,0,0,0-3.519,1.621A8.886,8.886,0,0,0,105.292,190.311Z" transform="translate(-67.614 1415.326)" fill="#e1d4c6"/>
    <path d="M176.333,311.78l.217.079.237-.059a2.722,2.722,0,0,0,1.364-.751,4.608,4.608,0,0,0,1.127-1.76,5.984,5.984,0,0,0,.376-1.641h0v-.257a6.339,6.339,0,0,0-.435-2.234,3.272,3.272,0,0,0-1.9-1.977l-.217-.079-.237.059a2.879,2.879,0,0,0-1.364.751,4.608,4.608,0,0,0-1.127,1.76,5.984,5.984,0,0,0-.376,1.641v.257a6.163,6.163,0,0,0,.435,2.214A3.362,3.362,0,0,0,176.333,311.78Z" transform="translate(-123.293 1321.458)" fill="#e1d4c6"/>
    <path d="M153.388,366.836a5.483,5.483,0,0,0-1.938-.336,5.316,5.316,0,0,0-.613.04,5.551,5.551,0,0,0-2.017.751,3.411,3.411,0,0,0-.989.87,2.716,2.716,0,0,0-.593,1.325l-.04.237.1.217a3.021,3.021,0,0,0,1.74,1.522,5.483,5.483,0,0,0,1.938.336,5.309,5.309,0,0,0,.613-.04h0a5.551,5.551,0,0,0,2.017-.751,3.41,3.41,0,0,0,.989-.87,2.716,2.716,0,0,0,.593-1.325l.04-.237-.1-.217A3.091,3.091,0,0,0,153.388,366.836Z" transform="translate(-101.791 1270.593)" fill="#e1d4c6"/>
    <path d="M15.586,162.067l.059-.237a4.351,4.351,0,0,0,.119-.989,5.963,5.963,0,0,0-1.424-3.579,8.829,8.829,0,0,0-2.373-2.1A9.323,9.323,0,0,0,7.677,154a4.752,4.752,0,0,0-3.322,1.186l-.178.158-.059.237A4.351,4.351,0,0,0,4,156.57a5.858,5.858,0,0,0,1.424,3.559,8.828,8.828,0,0,0,2.373,2.1h0a9.323,9.323,0,0,0,4.29,1.167,4.752,4.752,0,0,0,3.322-1.186Z" transform="translate(13.096 1441.079)" fill="#e1d4c6"/>
    <path d="M66.2,269.915a7.542,7.542,0,0,0-2.551-.415,6.046,6.046,0,0,0-2.017.316,3.76,3.76,0,0,0-1.779,1.285l-.138.2-.02.237v.237A4.562,4.562,0,0,0,61.282,275a8.056,8.056,0,0,0,2.491,1.582h0a8.068,8.068,0,0,0,2.551.415,6.045,6.045,0,0,0,2.017-.316,3.76,3.76,0,0,0,1.779-1.285l.138-.2.02-.237v-.237A4.488,4.488,0,0,0,68.7,271.5,7.913,7.913,0,0,0,66.2,269.915Z" transform="translate(-31.591 1348.415)" fill="#e1d4c6"/>
  </g>
</svg>
